<svg width="1200" height="675" viewBox="0 0 1200 675" fill="none" xmlns="http://www.w3.org/2000/svg">
  <rect width="1200" height="675" rx="34" fill="#070B12"/>
  <rect x="1" y="1" width="1198" height="673" rx="33" stroke="#1B8FDB" stroke-opacity=".28" stroke-width="2"/>
  <g opacity=".6" stroke="#0EA5E9" stroke-width="3" stroke-linecap="round">
    <path d="M40 92H210L242 60H360"/>
    <path d="M870 84H1040L1080 124H1160"/>
    <path d="M55 560H210L255 606H392"/>
    <path d="M780 584H936L985 538H1160"/>
    <path d="M76 150H246M76 180H190M950 150H1120M1000 185H1150"/>
    <path d="M270 88V34M310 88V48M350 88V34"/>
    <path d="M900 590V642M940 590V628M980 590V642"/>
  </g>
  <g opacity=".25" fill="#38BDF8" font-family="Consolas, monospace" font-size="18">
    <text x="75" y="72">001101011001</text>
    <text x="855" y="62">010110000101</text>
    <text x="80" y="612">secure_review=true</text>
    <text x="874" y="626">risk_score&lt;threshold</text>
  </g>
  <g filter="url(#glow)">
    <text x="600" y="275" text-anchor="middle" fill="#F8FAFC" font-family="Arial, Helvetica, sans-serif" font-size="92" font-weight="800" letter-spacing="1">
      AI Maintainer OS
    </text>
    <text x="600" y="365" text-anchor="middle" fill="#F8FAFC" font-family="Arial, Helvetica, sans-serif" font-size="48" font-weight="700">
      GitHub Action &amp; CLI for Secure
    </text>
    <text x="600" y="425" text-anchor="middle" fill="#F8FAFC" font-family="Arial, Helvetica, sans-serif" font-size="48" font-weight="700">
      AI Pull Request Reviews
    </text>
  </g>
  <g transform="translate(155 505)">
    <circle cx="55" cy="55" r="54" fill="#0F172A" stroke="#60A5FA" stroke-width="4"/>
    <path d="M30 57L48 75L83 36" stroke="#93C5FD" stroke-width="12" stroke-linecap="round" stroke-linejoin="round"/>
  </g>
  <g transform="translate(370 508)" stroke="#F8FAFC" stroke-width="16" stroke-linecap="round" stroke-linejoin="round">
    <path d="M48 20L14 55L48 90"/>
    <path d="M92 20L126 55L92 90"/>
  </g>
  <g transform="translate(566 508)">
    <circle cx="58" cy="58" r="54" fill="#F8FAFC"/>
    <path d="M38 91C14 82 12 59 23 44C22 31 28 21 28 21C39 21 47 29 47 29C56 26 66 26 75 29C75 29 83 21 94 21C94 21 100 31 99 44C110 59 108 82 84 91C72 95 50 95 38 91Z" fill="#070B12"/>
  </g>
  <g transform="translate(770 526)">
    <path d="M24 82A82 82 0 0 1 188 82" stroke="#60A5FA" stroke-width="22" stroke-linecap="round"/>
    <path d="M107 82L154 34" stroke="#F8FAFC" stroke-width="12" stroke-linecap="round"/>
    <circle cx="107" cy="82" r="14" fill="#F8FAFC"/>
  </g>
  <g transform="translate(995 520)">
    <rect x="18" y="22" width="112" height="82" rx="18" fill="#0F172A" stroke="#E0F2FE" stroke-width="6"/>
    <text x="74" y="76" text-anchor="middle" fill="#38BDF8" font-family="Arial, Helvetica, sans-serif" font-size="36" font-weight="800">AI</text>
    <path d="M0 64H18M130 64H148M74 0V22M74 104V130" stroke="#E0F2FE" stroke-width="8" stroke-linecap="round"/>
  </g>
  <defs>
    <filter id="glow" x="0" y="0" width="1200" height="675" filterUnits="userSpaceOnUse">
      <feGaussianBlur stdDeviation="1.5" result="blur"/>
      <feMerge>
        <feMergeNode in="blur"/>
        <feMergeNode in="SourceGraphic"/>
      </feMerge>
    </filter>
  </defs>
</svg>
